<svg width="1258" height="245" viewBox="0 0 1258 245" fill="none" xmlns="http://www.w3.org/2000/svg">
<path fill-rule="evenodd" clip-rule="evenodd" d="M237.458 6.60371C228.653 -2.20112 214.377 -2.20112 205.572 6.60372L145.837 66.3393C141.724 70.4518 135.414 71.2252 130.04 69.0015C129.417 68.7436 128.791 68.4936 128.163 68.2515C123.85 66.5891 120.747 62.5936 120.747 57.9711C120.747 52.2757 116.13 47.6587 110.435 47.6587L85.9674 47.6587C80.272 47.6587 75.6549 52.2757 75.6549 57.9711C75.6549 62.5936 72.5522 66.5891 68.2391 68.2515C66.9841 68.7352 65.7384 69.2505 64.5034 69.7973C60.2788 71.6678 55.2624 71.036 51.9955 67.7691C47.9691 63.7426 41.4409 63.7426 37.4145 67.7691L20.1104 85.0732C16.0839 89.0996 16.0839 95.6277 20.1104 99.6542C23.3773 102.921 24.0091 107.937 22.1386 112.162C21.5918 113.397 21.0765 114.643 20.5928 115.898C18.9303 120.211 14.9349 123.314 10.3124 123.314C4.61704 123.314 0 127.931 0 133.626V158.094C0 163.789 4.61702 168.406 10.3124 168.406C14.9348 168.406 18.9303 171.509 20.5927 175.822C21.0765 177.077 21.5918 178.323 22.1386 179.558C24.0091 183.782 23.3773 188.799 20.1104 192.065C16.084 196.092 16.084 202.62 20.1104 206.646L37.4145 223.951C41.441 227.977 47.9691 227.977 51.9955 223.951C55.2624 220.684 60.2788 220.052 64.5034 221.922C65.7385 222.469 66.9841 222.984 68.2392 223.468C72.5523 225.131 75.655 229.126 75.655 233.749C75.655 239.444 80.2721 244.061 85.9675 244.061L110.435 244.061C116.13 244.061 120.747 239.444 120.747 233.749C120.747 229.126 123.85 225.131 128.163 223.468C129.418 222.984 130.664 222.469 131.899 221.922C136.123 220.052 141.14 220.684 144.407 223.951C148.433 227.977 154.961 227.977 158.988 223.951L176.292 206.647C180.318 202.62 180.318 196.092 176.292 192.066C173.025 188.799 172.393 183.782 174.264 179.558C174.717 178.533 175.149 177.501 175.559 176.463C178.062 170.127 183.857 165.399 190.669 165.399H247.007C259.459 165.399 269.553 155.304 269.553 142.852C269.553 130.401 259.459 120.306 247.007 120.306H185.471C180.642 120.306 176.446 117.192 174.526 112.76C172.544 108.187 173.203 102.744 176.727 99.2194L237.458 38.4889C246.262 29.684 246.262 15.4086 237.458 6.60371ZM63.3227 180.738C44.0599 161.475 44.0599 130.244 63.3227 110.981C82.5855 91.7187 113.817 91.7187 133.079 110.981C152.342 130.244 152.342 161.475 133.079 180.738C113.817 200.001 82.5855 200.001 63.3227 180.738ZM85.1752 132.832C91.8162 132.832 97.1998 127.449 97.1998 120.808C97.1998 114.166 91.8162 108.783 85.1752 108.783C78.5341 108.783 73.1505 114.166 73.1505 120.808C73.1505 127.449 78.5341 132.832 85.1752 132.832Z" fill="#68B7FF"/>
<path d="M296.178 201.781L327.928 25.9055C328.095 25.2389 328.511 24.9055 329.178 24.9055H366.303C366.97 24.9055 367.386 25.2389 367.553 25.9055L398.053 201.781C398.136 202.614 397.803 203.031 397.053 203.031H368.678C367.845 203.031 367.386 202.614 367.303 201.781L364.553 183.031H329.678L326.928 201.781C326.845 202.614 326.428 203.031 325.678 203.031H297.178C296.511 203.031 296.178 202.614 296.178 201.781ZM346.303 83.7805L334.803 155.656H359.428L348.928 83.7805L347.428 74.2805L346.303 83.7805ZM455.928 205.531C446.928 205.531 438.595 203.197 430.928 198.531C423.261 193.864 417.136 187.614 412.553 179.781C408.053 171.864 405.803 163.239 405.803 153.906L406.303 25.9055C406.303 25.2389 406.636 24.9055 407.303 24.9055H436.053C436.72 24.9055 437.053 25.2389 437.053 25.9055V153.906C437.053 159.656 438.886 164.572 442.553 168.656C446.22 172.656 450.678 174.656 455.928 174.656C461.428 174.656 466.011 172.656 469.678 168.656C473.345 164.572 475.178 159.656 475.178 153.906V25.9055C475.178 25.2389 475.511 24.9055 476.178 24.9055H504.928C505.595 24.9055 505.928 25.2389 505.928 25.9055L506.428 153.906C506.428 163.322 504.178 171.989 499.678 179.906C495.095 187.739 489.011 193.989 481.428 198.656C473.845 203.239 465.345 205.531 455.928 205.531ZM581.178 203.031H552.303C551.553 203.031 551.178 202.614 551.178 201.781V55.7805H517.928C517.095 55.7805 516.678 55.3639 516.678 54.5305L516.928 25.9055C516.928 25.2389 517.261 24.9055 517.928 24.9055H615.178C616.095 24.9055 616.553 25.2389 616.553 25.9055V54.5305C616.553 55.3639 616.22 55.7805 615.553 55.7805H581.928L582.178 201.781C582.178 202.614 581.845 203.031 581.178 203.031ZM671.178 205.531C662.095 205.531 653.72 203.197 646.053 198.531C638.47 193.864 632.345 187.656 627.678 179.906C623.095 172.072 620.803 163.489 620.803 154.156L621.053 73.0305C621.053 63.5305 623.345 54.9889 627.928 47.4055C632.428 39.7389 638.511 33.6139 646.178 29.0305C653.845 24.3639 662.178 22.0305 671.178 22.0305C680.511 22.0305 688.886 24.3222 696.303 28.9055C703.803 33.4889 709.803 39.6555 714.303 47.4055C718.886 55.0722 721.178 63.6139 721.178 73.0305L721.428 154.156C721.428 163.489 719.178 172.031 714.678 179.781C710.095 187.614 704.011 193.864 696.428 198.531C688.845 203.197 680.428 205.531 671.178 205.531ZM671.178 174.656C676.345 174.656 680.845 172.572 684.678 168.406C688.511 164.156 690.428 159.406 690.428 154.156L690.178 73.0305C690.178 67.3639 688.386 62.5722 684.803 58.6555C681.22 54.7389 676.678 52.7805 671.178 52.7805C665.928 52.7805 661.428 54.6972 657.678 58.5305C653.928 62.3639 652.053 67.1972 652.053 73.0305V154.156C652.053 159.739 653.928 164.572 657.678 168.656C661.428 172.656 665.928 174.656 671.178 174.656ZM824.553 203.031H741.803C741.136 203.031 740.803 202.614 740.803 201.781L741.053 26.1555C741.053 25.3222 741.47 24.9055 742.303 24.9055H770.803C771.636 24.9055 772.053 25.3222 772.053 26.1555L771.803 171.531H824.553C825.386 171.531 825.803 171.947 825.803 172.781V201.781C825.803 202.614 825.386 203.031 824.553 203.031ZM833.928 201.781L865.678 25.9055C865.845 25.2389 866.261 24.9055 866.928 24.9055H904.053C904.72 24.9055 905.136 25.2389 905.303 25.9055L935.803 201.781C935.886 202.614 935.553 203.031 934.803 203.031H906.428C905.595 203.031 905.136 202.614 905.053 201.781L902.303 183.031H867.428L864.678 201.781C864.595 202.614 864.178 203.031 863.428 203.031H834.928C834.261 203.031 833.928 202.614 833.928 201.781ZM884.053 83.7805L872.553 155.656H897.178L886.678 83.7805L885.178 74.2805L884.053 83.7805ZM987.178 203.031H957.803C957.22 203.031 956.928 202.697 956.928 202.031L957.178 129.281L922.928 25.9055C922.761 25.2389 923.011 24.9055 923.678 24.9055H952.178C953.011 24.9055 953.511 25.2389 953.678 25.9055L972.553 94.7805L991.803 25.9055C991.97 25.2389 992.386 24.9055 993.053 24.9055H1021.8C1022.47 24.9055 1022.72 25.2389 1022.55 25.9055L987.928 128.281L988.178 202.031C988.178 202.697 987.845 203.031 987.178 203.031ZM1120.3 203.031H1037.55C1036.89 203.031 1036.55 202.614 1036.55 201.781L1036.8 25.9055C1036.8 25.2389 1037.14 24.9055 1037.8 24.9055H1120.05C1120.72 24.9055 1121.05 25.3222 1121.05 26.1555V54.7805C1121.05 55.4472 1120.72 55.7805 1120.05 55.7805H1067.55V95.7805H1120.05C1120.72 95.7805 1121.05 96.1139 1121.05 96.7805L1121.3 125.781C1121.3 126.447 1120.97 126.781 1120.3 126.781H1067.55V171.531H1120.3C1120.97 171.531 1121.3 171.947 1121.3 172.781V202.031C1121.3 202.697 1120.97 203.031 1120.3 203.031ZM1174.05 203.031H1145.05C1144.39 203.031 1144.05 202.614 1144.05 201.781L1144.55 25.9055C1144.55 25.2389 1144.89 24.9055 1145.55 24.9055H1197.3C1206.55 24.9055 1215.05 27.1555 1222.8 31.6555C1230.55 36.1555 1236.72 42.1972 1241.3 49.7805C1245.97 57.3639 1248.3 65.9472 1248.3 75.5305C1248.3 81.7805 1247.34 87.4472 1245.43 92.5305C1243.51 97.6139 1241.26 101.906 1238.68 105.406C1236.18 108.906 1233.89 111.489 1231.8 113.156C1241.05 123.406 1245.68 135.447 1245.68 149.281L1245.93 201.781C1245.93 202.614 1245.51 203.031 1244.68 203.031H1215.68C1215.01 203.031 1214.68 202.781 1214.68 202.281V149.281C1214.68 143.114 1212.51 137.781 1208.18 133.281C1203.84 128.781 1198.51 126.531 1192.18 126.531H1175.3L1175.05 201.781C1175.05 202.614 1174.72 203.031 1174.05 203.031ZM1197.3 55.5305H1175.3V95.7805H1197.3C1202.55 95.7805 1207.22 93.8222 1211.3 89.9055C1215.47 85.9889 1217.55 81.1972 1217.55 75.5305C1217.55 70.1139 1215.55 65.4472 1211.55 61.5305C1207.55 57.5305 1202.8 55.5305 1197.3 55.5305Z" fill="#68B7FF"/>
</svg>
